<?xml version="1.0" standalone="no"?><!DOCTYPE svg PUBLIC "-//W3C//DTD SVG 1.1//EN" "http://www.w3.org/Graphics/SVG/1.1/DTD/svg11.dtd"><svg t="1717223371859" class="icon" viewBox="0 0 1024 1024" version="1.1" xmlns="http://www.w3.org/2000/svg" p-id="961" xmlns:xlink="http://www.w3.org/1999/xlink" width="32" height="32"><path d="M514.8 1017.9a42.6 42.6 0 0 1-19.6-56l54.4-108.8H405.3a42.6 42.6 0 0 1-38.1-61.7l54.4-108.8h-194a227.4 227.4 0 0 1-38.5-451.5 341.2 341.2 0 0 1 645.6 0 227.4 227.4 0 0 1-38.5 451.5H516.9l-42.6 85.2h144.3a42.6 42.6 0 0 1 38.1 61.7L571.4 1000a42.6 42.6 0 0 1-56.6 17.9z m-245-759.3l-16.3 47.9-50 8.5a142.2 142.2 0 0 0 24.2 282.2h568.5A142.1 142.1 0 0 0 820.4 315l-50-8.5-16.3-47.9a256 256 0 0 0-484.2 0z m530 665.3a42.6 42.6 0 0 1-8.6-41.9l42.6-128a42.7 42.7 0 0 1 80.9 26.9l-42.6 128a42.6 42.6 0 0 1-72.4 14.8z m-682.1 0a42.7 42.7 0 0 1-8.5-41.9l42.6-128a42.6 42.6 0 1 1 80.9 26.9l-42.6 128a42.7 42.7 0 0 1-72.4 14.8z" fill="#333333" p-id="962"></path></svg>